Coordinates
version=1
nRows=9
nColumns=42
inDegrees=yes

Units are S.I. units (second, meters, Newtons, ...)
If the header above contains a line with 'inDegrees', this indicates whether rotational values are in degrees (yes) or radians (no).

endheader
time	pelvis_tilt	pelvis_list	pelvis_rotation	pelvis_tx	pelvis_ty	pelvis_tz	hip_flexion_r	hip_adduction_r	hip_rotation_r	knee_angle_r	knee_adduction_r	knee_angle_r_beta	ankle_angle_r	subtalar_angle_r	mtp_angle_r	hip_flexion_l	hip_adduction_l	hip_rotation_l	knee_angle_l	knee_adduction_l	knee_angle_l_beta	ankle_angle_l	subtalar_angle_l	mtp_angle_l	lumbar_extension	lumbar_bending	lumbar_rotation	arm_flex_r	arm_add_r	arm_rot_r	elbow_flex_r	pro_sup_r	wrist_flex_r	wrist_dev_r	arm_flex_l	arm_add_l	arm_rot_l	elbow_flex_l	pro_sup_l	wrist_flex_l	wrist_dev_l
      1.07000000	     14.61104516	      5.01082774	      0.07254504	     -0.23065184	      0.93715472	     -0.27626641	     12.99011247	     -3.05377665	     -1.13505578	     37.08828608	     -0.23836247	      0.64731271	      7.16612494	    -12.14604179	     -7.77737695	    -17.41643065	     13.71562401	    -19.87098507	     11.43386786	     -6.30402829	      0.19955864	     21.45258719	     22.14255108	     -7.77737695	    -45.35997611	     -7.24990092	     -2.27629499	      1.98673354	     -8.42201063	      9.12859087	     39.91372288	     90.00000001	      0.00000000	      0.00000000	     -4.44080401	    -13.92437331	     17.61406044	     47.71763211	     90.00000001	      0.00000000	      0.00000000
      1.08000000	     14.60737867	      5.17511479	     -0.21298674	     -0.22484730	      0.93614244	     -0.27598212	     13.28573889	     -3.06042449	     -1.99603354	     34.96355347	     -0.71659914	      0.61022913	      7.93566253	    -10.07563122	     -7.75409155	    -18.23450709	     14.12131392	    -19.53995218	     10.66518226	     -6.24661947	      0.18614255	     21.42693295	     21.75848597	     -7.75409155	    -45.27788429	     -7.49995770	     -2.17975495	      1.92312718	     -8.41414029	      9.16381381	     39.93251412	     90.00000001	      0.00000000	      0.00000000	     -4.55479807	    -13.95677368	     17.68461542	     47.61663330	     90.00000001	      0.00000000	      0.00000000
      1.09000000	     14.45006779	      5.33464547	     -0.59837620	     -0.21924832	      0.93473002	     -0.27545632	     13.75214325	     -2.96679947	     -2.16609359	     32.90879696	     -0.93820758	      0.57436686	      8.19862070	     -9.24518729	     -7.74991666	    -18.67611247	     14.53206784	    -19.66247532	     10.18284793	     -6.32870693	      0.17772422	     21.60180677	     21.81454708	     -7.74991666	    -45.04543290	     -7.81744251	     -1.99481988	      1.88912257	     -8.40645283	      9.14236550	     39.89793483	     90.00000001	      0.00000000	      0.00000000	     -4.63826134	    -13.98306247	     17.73489640	     47.48621540	     90.00000001	      0.00000000	      0.00000000
      1.10000000	     14.33111046	      5.49769712	     -0.94563469	     -0.21351990	      0.93334806	     -0.27494187	     14.09219790	     -2.83120549	     -2.50928260	     30.82815942	     -1.33469993	      0.53805288	      8.55163808	     -8.20845740	     -7.74678288	    -19.18409853	     14.92424431	    -19.78949297	      9.67144429	     -6.38307000	      0.16879855	     21.75073003	     21.89682415	     -7.74678288	    -44.84510988	     -8.10718364	     -1.83267104	      1.79844506	     -8.37282299	      9.12621340	     39.88780344	     90.00000001	      0.00000000	      0.00000000	     -4.70016220	    -14.02759359	     17.78788761	     47.37279023	     90.00000001	      0.00000000	      0.00000000
      1.11000000	     14.56929918	      5.57681238	     -1.14724671	     -0.20706360	      0.93251828	     -0.27466018	     13.98288147	     -2.83360069	     -4.66227649	     28.85707639	     -2.15922737	      0.50365100	     10.11152555	     -3.67220492	     -7.72515331	    -20.36325676	     15.06836746	    -19.55806387	      8.93443098	     -6.07400086	      0.15593524	     21.69043421	     21.87630385	     -7.72515331	    -44.95047302	     -8.19819560	     -1.71327222	      1.68037124	     -8.38487335	      9.10975107	     39.98840846	     90.00000001	      0.00000000	      0.00000000	     -4.83523767	    -14.05407172	     17.91620917	     47.31465905	     90.00000001	      0.00000000	      0.00000000
      1.12000000	     14.55331050	      5.68136298	     -1.46131304	     -0.20103322	      0.93119200	     -0.27408721	     14.10734499	     -2.67433979	     -5.47312680	     26.92150474	     -2.58534821	      0.46986890	     10.61320271	     -1.91110515	     -7.71697347	    -21.01938384	     15.30128956	    -19.57959011	      8.48643755	     -5.94070684	      0.14811628	     21.78911013	     21.88279401	     -7.71697347	    -44.83171865	     -8.40270772	     -1.51545551	      1.59222056	     -8.36878098	      9.03705249	     40.00631137	     90.00000001	      0.00000000	      0.00000000	     -4.90187760	    -14.08697300	     18.00505605	     47.20387083	     90.00000001	      0.00000000	      0.00000000
      1.13000000	     14.32639984	      5.90576518	     -1.83380850	     -0.19516870	      0.92932351	     -0.27351765	     14.58250113	     -2.60553606	     -5.89562889	     25.36026721	     -2.92935738	      0.44262016	     10.86308689	     -0.90103246	     -7.71470136	    -21.31691774	     15.82060841	    -19.59873865	      8.13219170	     -6.12779738	      0.14193352	     22.03891144	     21.91191880	     -7.71470136	    -44.49783177	     -8.74899230	     -1.35022608	      1.53020840	     -8.34633359	      9.04661900	     39.93876886	     90.00000001	      0.00000000	      0.00000000	     -4.95591275	    -14.12114902	     18.07782013	     47.07230237	     90.00000001	      0.00000000	      0.00000000
      1.14000000	     14.37281051	      6.09875987	     -1.98731903	     -0.18858143	      0.92786631	     -0.27338945	     14.84583563	     -2.81996265	     -8.54719066	     24.19319148	     -3.68893355	      0.42225085	     12.36825101	      4.03607270	     -7.69548941	    -22.17593426	     16.15783792	    -19.11694683	      7.57878614	     -5.99596826	      0.13227477	     22.01800879	     21.46525565	     -7.69548941	    -44.39351973	     -8.89295177	     -1.29471467	      1.36207439	     -8.33377894	      8.98769308	     39.94807371	     90.00000001	      0.00000000	      0.00000000	     -5.07006556	    -14.19181230	     18.23178005	     47.01447320	     90.00000001	      0.00000000	      0.00000000
      1.15000000	     14.29196320	      6.31526207	     -2.21696691	     -0.18224762	      0.92622173	     -0.27301309	     15.14316836	     -2.87882578	     -9.96939970	     23.06694576	     -4.17768077	      0.40259415	     13.06121059	      6.48895224	     -7.67854448	    -22.74846537	     16.56411448	    -18.73243862	      7.20287618	     -5.98963449	      0.12571390	     22.08539085	     21.06937001	     -7.67854448	    -44.18902500	     -9.12482801	     -1.20081273	      1.25123893	     -8.30388013	      8.94497470	     39.89463994	     90.00000001	      0.00000000	      0.00000000	     -5.12390729	    -14.23580917	     18.34984258	     46.88590271	     90.00000001	      0.00000000	      0.00000000
